<svg height="511pt" viewBox="-79 1 511 511.99998" width="511pt" xmlns="http://www.w3.org/2000/svg"><path d="m177.359375 512c-20.953125 0-38.09375-17.140625-38.09375-38.09375v-58.410156c0-20.953125 17.140625-38.09375 38.09375-38.09375s38.09375 17.140625 38.09375 38.09375v58.410156c0 20.953125-17.140625 38.09375-38.09375 38.09375zm0 0" fill="#8dc971"/><path d="m177.359375 377.398438c-20.953125 0-38.09375 17.144531-38.09375 38.09375v58.414062c0 .488281.019531.976562.039063 1.460938 37.953124-2.265626 61.953124-10.683594 76.148437-18.132813v-41.742187c0-20.949219-17.140625-38.09375-38.09375-38.09375zm0 0" fill="#7fb762"/><path d="m249.328125 107.683594c0 39.75-32.222656 71.972656-71.96875 71.972656s-71.96875-32.222656-71.96875-71.972656c0-39.746094 32.222656-107.683594 71.96875-107.683594s71.96875 67.9375 71.96875 107.683594zm0 0" fill="#8dc971"/><path d="m149.476562 11.128906c-25.902343 20.921875-44.085937 66.695313-44.085937 96.554688 0 39.75 32.222656 71.972656 71.96875 71.972656s71.96875-32.222656 71.96875-71.972656c0 0-82.15625-36.285156-99.851563-96.554688zm0 0" fill="#7fb762"/><path d="m271.226562 375.292969c0-38.332031-42.027343-69.40625-93.867187-69.40625s-93.863281 31.074219-93.863281 69.40625 42.023437 69.40625 93.863281 69.40625 93.867187-31.074219 93.867187-69.40625zm0 0" fill="#9ad880"/><path d="m177.359375 305.886719c-51.839844 0-93.863281 31.074219-93.863281 69.40625s42.023437 69.40625 93.863281 69.40625c1.304687 0 2.601563-.019531 3.890625-.058594-4.136719-13.671875.488281-29.34375 12.933594-38.585937 9.929687-7.371094 16.097656-18.296876 16.097656-18.296876l.929688-77.21875c-10.5-3.003906-21.914063-4.652343-33.851563-4.652343zm0 0" fill="#8dc971"/><path d="m263.785156 205.871094c-28.105468 28.105468-73.675781 28.105468-101.78125 0-28.105468-28.105469-28.105468-73.675782 0-101.78125 28.105469-28.105469 98.929688-53.359375 127.035156-25.253906 28.105469 28.105468 2.851563 98.929687-25.253906 127.035156zm0 0" fill="#9ad880"/><path d="m89.203125 205.871094c28.105469 28.105468 73.675781 28.105468 101.78125 0 28.105469-28.105469 28.105469-73.675782 0-101.78125-28.105469-28.105469-98.929687-53.359375-127.035156-25.253906-28.105469 28.105468-2.851563 98.929687 25.253906 127.035156zm0 0" fill="#b2e59c"/><path d="m63.949219 78.835938c-28.105469 28.105468-2.851563 98.929687 25.253906 127.035156 13.496094 13.496094 31.027344 20.511718 48.710937 21.046875-24.144531-71-2.386718-128 8.773438-150.246094-30.28125-12.0625-65.007812-15.566406-82.738281 2.164063zm0 0" fill="#9ad880"/><path d="m300.21875 268.359375c-28.105469 28.105469-73.675781 28.105469-101.78125 0s-28.105469-73.675781 0-101.78125c28.109375-28.105469 98.929688-53.359375 127.035156-25.253906 28.109375 28.105469 2.851563 98.929687-25.253906 127.035156zm0 0" fill="#8dc971"/><path d="m54.5 268.359375c28.105469 28.105469 73.675781 28.105469 101.78125 0s28.105469-73.675781 0-101.78125c-28.109375-28.105469-98.929688-53.359375-127.035156-25.253906-28.105469 28.105469-2.851563 98.929687 25.253906 127.035156zm0 0" fill="#9ad880"/><path d="m29.246094 141.324219c-28.105469 28.105469-2.851563 98.929687 25.253906 127.035156 10.375 10.371094 23.128906 16.917969 36.503906 19.636719-20.316406-98.777344 36.316406-141.804688 36.316406-141.804688-32.976562-17.222656-77.25-25.691406-98.074218-4.867187zm0 0" fill="#8dc971"/><path d="m316.707031 364.996094c-28.109375 28.105468-73.675781 28.105468-101.78125 0-28.105469-28.105469-28.105469-73.675782 0-101.78125 28.105469-28.105469 98.929688-53.359375 127.035157-25.253906 28.105468 28.105468 2.851562 98.929687-25.253907 127.035156zm0 0" fill="#b2e59c"/><path d="m38.015625 364.996094c28.105469 28.105468 73.671875 28.105468 101.78125 0 28.105469-28.105469 28.105469-73.675782 0-101.78125-28.109375-28.105469-98.929687-53.359375-127.035156-25.253906-28.109375 28.105468-2.851563 98.929687 25.253906 127.035156zm0 0" fill="#b2e59c"/><path d="m249.328125 323.746094c0 39.746094-32.222656 71.96875-71.96875 71.96875s-71.96875-32.222656-71.96875-71.96875 32.222656-107.683594 71.96875-107.683594 71.96875 67.9375 71.96875 107.683594zm0 0" fill="#c8efb9"/><path d="m87.21875 232.75c-28.117188-9.46875-58.328125-10.914062-74.460938 5.214844-28.105468 28.105468-2.851562 98.929687 25.257813 127.035156 6.40625 6.410156 13.734375 11.355469 21.542969 14.839844-27.722656-94.816406 27.660156-147.089844 27.660156-147.089844zm0 0" fill="#9ad880"/></svg>