<svg height="512pt" viewBox="-140 0 512 512" width="512pt" xmlns="http://www.w3.org/2000/svg"><path d="m180.003906 512h-118.179687c-20.066407 0-37.511719-13.601562-42.425781-33.074219-16.753907-66.347656-30.59375-145.226562-6.234376-227.199219 21.492188-72.328124 9.527344-143.78125-3.296874-197.945312-3.09375-13.078125-.085938-26.625 8.253906-37.167969 8.347656-10.558593 20.855468-16.613281 34.316406-16.613281h118.179688c20.066406 0 37.511718 13.601562 42.425781 33.074219 16.753906 66.347656 30.59375 145.226562 6.234375 227.199219-21.492188 72.328124-9.527344 143.78125 3.296875 197.945312 3.09375 13.078125.085937 26.625-8.253907 37.167969-8.347656 10.558593-20.855468 16.613281-34.316406 16.613281zm0 0" fill="#ffcebe"/><path d="m92.214844 260.273438c25.613281-86.203126 9.359375-170.722657-12.023438-249.214844l-1.558594-5.726563-1.453124-5.332031h-24.742188c-13.460938 0-25.96875 6.054688-34.316406 16.613281-8.339844 10.542969-11.347656 24.089844-8.253906 37.167969 12.824218 54.164062 24.789062 125.617188 3.292968 197.945312-24.355468 81.972657-10.515625 160.851563 6.234375 227.195313 4.917969 19.476563 22.363281 33.078125 42.429688 33.078125h47.765625l-5.160156-18.941406c-20.21875-74.214844-35.691407-153.78125-12.214844-232.785156zm0 0" fill="#fce3d9"/><path d="m63.457031 251.726562c23.476563-79.003906 8.003907-158.570312-12.210937-232.785156l-5.035156-18.484375c-11.039063 1.5625-21.046876 7.25-28.089844 16.15625-8.339844 10.542969-11.347656 24.089844-8.253906 37.167969 12.824218 54.164062 24.789062 125.617188 3.292968 197.945312-24.355468 81.972657-10.515625 160.851563 6.234375 227.199219 4.917969 19.472657 22.363281 33.074219 42.429688 33.074219h16.671875l-3.011719-11.058594c-21.382813-78.492187-37.640625-163.011718-12.027344-249.214844zm0 0" fill="#ffa78e"/><path d="m132.484375 500.941406c-21.382813-78.492187-37.640625-163.011718-12.027344-249.214844 23.476563-79.003906 8.003907-158.570312-12.210937-232.785156l-3.707032-13.605468-1.453124-5.335938h-25.90625l1.453124 5.335938 1.558594 5.722656c21.382813 78.492187 37.636719 163.011718 12.023438 249.214844-23.476563 79.003906-8.003906 158.570312 12.214844 232.785156l5.160156 18.941406h25.90625zm0 0" fill="#f99480"/><path d="m219.28125 260.273438c24.355469-81.972657 10.515625-160.851563-6.234375-227.199219-4.917969-19.472657-22.363281-33.074219-42.429687-33.074219h-36.4375l3.011718 11.058594c21.382813 78.492187 37.636719 163.011718 12.023438 249.214844-23.476563 79.003906-8.003906 158.570312 12.214844 232.785156l5.160156 18.941406h13.414062c13.457032 0 25.964844-6.054688 34.316406-16.613281 8.339844-10.542969 11.347657-24.089844 8.253907-37.167969-12.824219-54.164062-24.789063-125.617188-3.292969-197.945312zm0 0" fill="#ea806a"/></svg>