<svg id="Capa_1" enable-background="new 0 0 512.005 512.005" height="512" viewBox="0 0 512.005 512.005" width="512" xmlns="http://www.w3.org/2000/svg"><g><path d="m88.466 301.422c-9.124 0-17.948-3.26-24.882-9.191-4.661-3.987-8.544-8.736-12.474-13.446-6.6-7.909-17.348-12.238-28.902-9.643-10.829 2.431-19.494 11.431-21.631 22.322-2.037 10.382 1.468 20.046 8.096 26.527l8.832 25.761 98.113-19.5v-22.831h-27.152z" fill="#f4dbb3"/><path d="m73.475 317.938c-11.282 0-22.737 1.331-33.075 5.852-5.402 2.362-11.662 3.12-18.192 1.653-5.162-1.159-9.83-3.815-13.535-7.451-6.613 6.499-10.147 16.119-8.078 26.508 2.142 10.756 10.642 19.662 21.32 22.165 11.665 2.735 22.539-1.599 29.195-9.576 4.196-5.028 8.338-10.101 13.431-14.244 6.943-5.647 15.812-8.392 24.762-8.392h26.315v-16.516h-42.143z" fill="#eac89f"/><path d="m369.037 132.275c-44.734 2.485-85.162 27.471-107.39 66.371l-3.045 5.329c-17.514 30.65-46.566 53.017-80.676 62.113l-52.175 13.914c-.637.17-1.262.364-1.875.58l-11.537 26.421 15.364 39.333 132.03 24.006c19.497 3.545 39.273 5.328 59.09 5.328h127.117v-247.668z" fill="#b57f5f"/><path d="m445.94 384.002v-16.516h-127.114c-18.827 0-37.616-1.694-56.14-5.062l-111.688-20.306c-15.707-2.856-27.123-16.535-27.123-32.499v-29.034c-9.807 3.482-16.516 12.804-16.516 23.354v26.355c0 11.973 8.563 22.233 20.342 24.375l132.03 24.005c19.497 3.545 39.273 5.328 59.09 5.328z" fill="#9f6e50"/><ellipse cx="445.94" cy="256.002" fill="#ff9a9f" rx="66.064" ry="128"/><ellipse cx="445.94" cy="256.002" fill="#ff8086" rx="49.548" ry="111.484"/><ellipse cx="445.94" cy="256.002" fill="#f5ebcd" rx="16.516" ry="28.903"/></g></svg>