<svg id="Layer_1" enable-background="new 0 0 505.641 505.641" height="512" viewBox="0 0 505.641 505.641" width="512" xmlns="http://www.w3.org/2000/svg"><path d="m439.389 79.822c-88.332-88.334-231.315-88.346-319.662 0-42.692 42.691-66.204 99.454-66.204 159.83 0 125.941 99.589 163.501 224.918 163.501 126.074 0 227.151-37.947 227.151-163.501.001-60.376-23.511-117.138-66.203-159.83z" fill="#d3d1d1"/><path d="m279.559 13.618c-124.922 0-226.036 101.093-226.036 226.034 0 22.828 3.377 43.353 10.074 61.522 79.662 23.686 179.302 41.359 241.046 8.573 115.936-61.564 122.814-137.5 186.677-63.67 5.058 5.847 9.583 9.122 13.632 10.208 10.07-127.915-91.532-242.667-225.393-242.667z" fill="#e0e0e0"/><path d="m119.727 79.822c-68.145 68.143-77.556 163.22-56.13 221.352 49.989 14.863 107.843 27.355 159.265 26.501 2.632-18.796 4.801-39.88 6.128-63.299 6.878-121.358 60.916-104.619 154.254-135.023 30.816-10.038 48.668-27.696 58.765-46.847-88.123-91.018-233.058-91.906-322.282-2.684z" fill="#eaeaea"/><path d="m331.842 280.047c-2.188-112.734-122.985-184.369-222.872-132.351-34.119 17.766-55.365 52.817-55.447 91.509-.1 91.407 53.1 140.339 140.432 156.947 71.455 13.581 139.372-40.895 137.887-116.105z" fill="#e0e0e0"/><path d="m256.394 377.514c-48.323-83.472-191.817-159.379-233.151-103.473-31.102 42.064-58.42 218.032 110.781 218.032 43.858 0 109.143-15.067 128.439-41.164 0-.953 22.749-23.616-6.069-73.395z" fill="#eaeaea"/><path d="m256.394 377.514c-30.539-52.753-101.78-105.442-161.202-119.184-68.883-15.933-101.311 27.904-65.88 89.105 48.416 83.633 191.864 159.314 233.151 103.474 0-.953 22.749-23.616-6.069-73.395z" fill="#80b9ed"/><path d="m286.736 174.989c-48.957-48.646-121.121-56.792-177.766-27.293-22.332 11.628-39.146 30.663-48.123 53.275 46.952 53.982 107.119 107.218 145.545 81.6 69.018-46.012 91.674-44.219 123.11 23.827 8.418-40.675-4.644-93.529-42.766-131.409z" fill="#eaeaea"/><path d="m272.207 162.247c-67.755-52.375-160.391-34.525-197.615 14.408 24.574 33.385 59.729 60.456 104.289 41.81 44.053-18.434 79.566-37.095 93.326-56.218z" fill="#f9f9f9"/><path d="m44.796 466.972c63.935 47.271 191.984 18.671 217.667-16.063 0-.816 23.509-24.413-7.553-75.904-36.877 7.815-74.161 10.305-99.608-1.486-68.776-31.866-65.828-1.54-117.901 52.499-5.493 5.701-11.229 10.584-17.091 14.773 6.639 10.227 14.829 19.04 24.486 26.181z" fill="#e0e0e0"/><path d="m404.713 51.348c-84.822-56.629-201.394-50.168-279.758 23.427 19.291 8.429 41.806 11.358 67.742 4.692 111.946-28.769 81.488-15.443 147.316 0 25.78 6.049 47.641-8.355 64.7-28.119z" fill="#f9f9f9"/><path d="m256.394 377.514c-30.539-52.753-101.78-105.442-161.202-119.184-68.883-15.933-101.311 27.904-65.88 89.105 48.416 83.633 191.864 159.314 233.151 103.474 0-.953 22.749-23.616-6.069-73.395z" fill="#cccaca"/><path d="m135.489 373.476c38.968 17.814 89.018 19.16 122.832 7.481-29.254-53.734-102.275-108.555-163.129-122.627-74.433-17.217-107.897 35.508-53.519 107.625 27.584-6.652 60.579-7.675 93.816 7.521z" fill="#d4d4d6"/><path d="m151.185 280.573c-102.872-56.375-156.59-11.654-129.177 52.379 19.654-1.988 36.446-8.191 45.951-21.347 19.533-27.031 54.649-32.153 83.226-31.032z" fill="#eaeaea"/></svg>