<svg id="Capa_1" enable-background="new 0 0 512 512" height="512" viewBox="0 0 512 512" width="512" xmlns="http://www.w3.org/2000/svg"><g><g><g><path d="m382.872 303.608c.648-5.535 1.008-11.157 1.008-16.863 0-79.932-65.029-144.96-144.96-144.96s-144.96 65.028-144.96 144.96c0 5.706.36 11.328 1.008 16.863z" fill="#ffc751"/><path d="m352.607 303.608c.817-5.507 1.273-11.131 1.273-16.863 0-63.39-51.571-114.96-114.96-114.96s-114.96 51.57-114.96 114.96c0 5.732.456 11.355 1.273 16.863z" fill="#fff370"/><path d="m171.383 216.593c.077.065.154.129.231.194 5.201 4.378 12.682 4.561 18.228.63 9.189-6.514 19.73-11.248 31.12-13.7 6.89-1.483 11.863-7.485 11.863-14.533v-.347c0-9.415-8.665-16.494-17.873-14.533-15.614 3.325-30.065 9.829-42.641 18.8-7.92 5.649-8.373 17.226-.928 23.489z" fill="#fff7c7"/><path d="m322.165 303.608c1.108-5.452 1.715-11.084 1.715-16.863 0-46.922-38.038-84.96-84.961-84.96-46.922 0-84.96 38.038-84.96 84.96 0 5.779.608 11.411 1.715 16.863z" fill="#ffc751"/><path d="m291.206 303.608c1.724-5.317 2.674-10.978 2.674-16.863 0-30.305-24.655-54.96-54.96-54.96s-54.96 24.655-54.96 54.96c0 5.885.95 11.546 2.674 16.863z" fill="#ffaf40"/><path d="m257.291 303.608c4.085-4.445 6.589-10.364 6.589-16.863 0-13.763-11.197-24.96-24.96-24.96s-24.96 11.197-24.96 24.96c0 6.499 2.504 12.418 6.589 16.863z" fill="#ff993a"/></g><g><path d="m221.692 303.608c.005-.284.018-.566.018-.85 0-46.922-38.038-84.96-84.961-84.96s-84.96 38.038-84.96 84.96c0 .285.013.567.018.85z" fill="#ffe059"/><path d="m75.33 284.279h.012c5.545 0 10.568-3.096 13.244-7.953 5.105-9.264 12.804-16.906 22.115-21.939 4.925-2.662 8.084-7.716 8.084-13.315 0-11.308-12.059-18.602-22.032-13.271-14.634 7.823-26.711 19.803-34.65 34.363-5.433 9.966 1.877 22.115 13.227 22.115z" fill="#fff370"/><path d="m191.687 303.608c.007-.284.024-.565.024-.851 0-30.305-24.655-54.96-54.96-54.96s-54.96 24.655-54.96 54.96c0 .286.017.567.024.851z" fill="#ffc751"/><path d="m161.686 303.608c.012-.283.024-.565.024-.851 0-13.763-11.197-24.96-24.96-24.96s-24.96 11.197-24.96 24.96c0 .286.012.568.024.851z" fill="#ffaf40"/><g><path d="m309.357 298.884c-.489-16.43-13.951-29.601-30.499-29.601-11.598 0-21.678 6.472-26.842 15.998-1.099 2.028-2.898 3.579-5.05 4.41-.202.078-.402.158-.601.24-4.124 1.695-8.825.552-11.593-2.945-5.589-7.062-14.235-11.594-23.941-11.594-9.437 0-17.872 4.285-23.469 11.014-2.513 3.021-6.678 4.214-10.39 2.925-3.13-1.087-6.491-1.678-9.991-1.678-2.713 0-5.342.356-7.846 1.021-2.448.651-5.02.298-7.235-.931-4.382-2.433-9.425-3.819-14.792-3.819-2.256 0-4.454.245-6.57.71-3.804.836-7.697-.637-10.031-3.755-5.565-7.434-14.439-12.247-24.44-12.247-9.024 0-17.13 3.918-22.716 10.145-2.879 3.209-7.452 4.279-11.373 2.486-3.86-1.765-8.152-2.749-12.675-2.749-13.296 0-24.6 8.505-28.785 20.368h288.839z" fill="#e86300"/><path d="m309.359 298.881h-3.014c-4.926-10.227-15.379-17.279-27.483-17.279-11.603 0-21.681 6.473-26.846 16.005-.25.444-.523.876-.842 1.274h-16.767c-5.574-6.814-14.071-11.159-23.57-11.159-9.442 0-17.882 4.277-23.479 11.011-.046.057-.091.102-.136.148h-37.698c-3.799-1.695-7.997-2.628-12.411-2.628-2.264 0-4.459.239-6.575.705-3.811.842-7.701-.637-10.033-3.754-5.563-7.439-14.435-12.251-24.434-12.251-9.032 0-17.131 3.924-22.717 10.147-2.878 3.208-7.451 4.277-11.375 2.491-3.856-1.763-8.156-2.753-12.672-2.753-7.963 0-15.209 3.049-20.646 8.042h-8.145c4.186-11.865 15.493-20.362 28.791-20.362 4.516 0 8.816.978 12.672 2.741 3.925 1.797 8.497.728 11.375-2.48 5.585-6.234 13.685-10.147 22.717-10.147 9.999 0 18.872 4.812 24.434 12.251 2.332 3.117 6.222 4.584 10.033 3.754 2.116-.466 4.311-.717 6.575-.717 5.358 0 10.408 1.388 14.788 3.822 2.218 1.228 4.789 1.581 7.235.933 2.503-.671 5.13-1.024 7.849-1.024 3.492 0 6.859.592 9.988 1.684 3.708 1.285 7.872.091 10.386-2.935 5.597-6.723 14.037-11.011 23.479-11.011 9.703 0 18.348 4.539 23.934 11.591 2.764 3.504 7.474 4.641 11.591 2.946.205-.08.398-.159.603-.239 2.15-.831 3.947-2.378 5.051-4.414 5.164-9.521 15.243-15.994 26.846-15.994 16.539.003 30.007 13.176 30.496 29.602z" fill="#f97c15"/></g></g><path d="m311.948 184.224c.078-.072.156-.143.234-.215 7.487-6.868 5.992-19.003-2.881-23.953-20.852-11.633-44.855-18.269-70.381-18.269-26.546 0-51.446 7.176-72.867 19.686-7.878 4.6-9.872 15.107-4.13 22.196.063.078.126.156.189.234 4.652 5.741 12.772 7.135 19.158 3.417 16.957-9.872 36.654-15.532 57.65-15.532 20.189 0 39.176 5.234 55.681 14.413 5.626 3.128 12.604 2.376 17.347-1.977z" fill="#ffe059"/><path d="m215.774 141.165c-3.253.539-4.118 4.823-1.331 6.584 12.582 7.948 34.275 19.897 34.275 56.282v60c0 6.553 5.312 11.865 11.865 11.865 6.553 0 11.865-5.312 11.865-11.865v-74.645c0-10.556 5.387-24.853 29.657-30.066 3.22-.692 3.952-4.973 1.103-6.627-13.007-7.553-41.677-19.117-87.434-11.528z" fill="#ef4343"/><path d="m272.449 235.206v-41.86c0-6.553-5.312-11.865-11.865-11.865-6.553 0-11.865 5.312-11.865 11.865v41.86c0 6.553 5.312 11.865 11.865 11.865 6.552 0 11.865-5.312 11.865-11.865z" fill="#f75e5e"/><g><g><path d="m493.257 303.608c.165-2.485.271-4.986.271-7.513 0-63.39-51.571-114.96-114.96-114.96s-114.96 51.57-114.96 114.96c0 2.526.107 5.027.271 7.513z" fill="#fff370"/><path d="m463.182 303.608c.221-2.476.347-4.979.347-7.512 0-46.922-38.038-84.961-84.961-84.961s-84.96 38.038-84.96 84.961c0 2.533.125 5.037.347 7.512z" fill="#ffe059"/><path d="m358.251 213.599c-6.128 1.501-11.995 3.667-17.52 6.417-8.679 4.32-11.107 15.56-4.854 22.969l.046.054c4.45 5.272 11.953 6.98 18.122 3.891 3.514-1.76 7.241-3.154 11.131-4.132 6.74-1.695 11.535-7.643 11.535-14.593 0-9.682-9.056-16.91-18.46-14.606z" fill="#fff370"/><path d="m432.984 303.608c.346-2.457.544-4.961.544-7.513 0-30.305-24.655-54.96-54.96-54.96s-54.96 24.655-54.96 54.96c0 2.552.199 5.055.544 7.513z" fill="#ffc751"/><path d="m402.334 303.608c.758-2.374 1.195-4.89 1.195-7.513 0-13.763-11.197-24.96-24.96-24.96s-24.96 11.197-24.96 24.96c0 2.623.437 5.138 1.195 7.513z" fill="#ffaf40"/></g><path d="m378.563 181.138c-32.038 0-61.056 13.181-81.922 34.403-6.279 6.385-5.559 16.847 1.593 22.236.08.06.159.12.239.18 5.922 4.464 14.256 3.942 19.45-1.352 15.415-15.716 36.887-25.467 60.64-25.467 16.268 0 31.462 4.577 44.376 12.508 7.006 4.302 16.145 2.302 20.5-4.671l.16-.257c4.357-6.977 2.207-16.168-4.791-20.491-17.529-10.832-38.17-17.089-60.245-17.089z" fill="#fff7c7"/><path d="m292.393 212.746c-2.047 2.396-1.37 6.057 1.384 7.589 8.627 4.798 24.887 16.558 24.887 37.037v38.176c0 6.587 5.339 11.926 11.926 11.926 6.587 0 11.926-5.339 11.926-11.926v-70.743c0-13.116 10.633-23.748 23.748-23.748 13.116 0 23.748 10.633 23.748 23.748v31.339c0 6.38 5.172 11.553 11.553 11.553 6.38 0 11.553-5.172 11.553-11.553v-24.359c0-5.008 2.879-23.963 21.069-31.92 3.707-1.622 4.003-6.772.527-8.844-12.69-7.561-38.526-18.868-73.675-13.573-39.343 5.928-60.585 25.863-68.646 35.298z" fill="#ef4343"/><g fill="#f75e5e"><path d="m390.013 216.906v22.639c0 6.38 5.172 11.553 11.553 11.553 6.38 0 11.553-5.172 11.553-11.553v-22.639c0-6.38-5.172-11.553-11.553-11.553-6.381 0-11.553 5.172-11.553 11.553z"/><path d="m318.664 271.077v24.074c0 6.567 5.137 12.199 11.703 12.32 6.689.122 12.149-5.263 12.149-11.924v-24.47c0-6.587-5.339-11.926-11.926-11.926-6.587 0-11.926 5.34-11.926 11.926z"/></g></g></g><g><g><g><path d="m418.758 380.575h-325.516c-14.834 0-26.859-12.025-26.859-26.859v-15.998h379.235v15.998c-.001 14.833-12.026 26.859-26.86 26.859z" fill="#e8e4d8"/><path d="m445.614 337.711v16.008c0 14.826-12.033 26.859-26.859 26.859h-55.042c21.836-8.595 40.423-23.663 53.342-42.867z" fill="#d8d4c9"/></g><g><path d="m1.998 313.933 21.339 31.355c4.252 6.248 11.32 9.987 18.877 9.987h427.572c7.557 0 14.625-3.739 18.877-9.987l21.339-31.355c5.158-7.579-.27-17.84-9.438-17.84h-489.128c-9.168-.001-14.596 10.26-9.438 17.84z" fill="#f1eee0"/></g></g><g><path d="m510.001 313.928-21.338 31.362c-4.247 6.245-11.314 9.99-18.872 9.99h-67.599c26.396-9.442 46.729-31.647 53.545-59.184h44.822c9.168 0 14.602 10.252 9.442 17.832z" fill="#e8e4d8"/></g><path d="m220.178 333.577h-145.399c-10.351 0-18.742-8.391-18.742-18.742 0-10.351 8.391-18.742 18.742-18.742h145.398c10.351 0 18.742 8.391 18.742 18.742.001 10.351-8.39 18.742-18.741 18.742z" fill="#f9f8f2"/></g><g><path d="m336.072 191.42-6.531-6.888c-2.085-2.199-1.993-5.671.206-7.756l11.457-10.865c2.199-2.085 5.671-1.993 7.756.206l6.531 6.887c2.085 2.199 1.993 5.671-.206 7.756l-11.457 10.865c-2.199 2.086-5.671 1.994-7.756-.205z" fill="#f97c15"/><path d="m355.286 180.76-11.46 10.867c-2.195 2.081-5.668 1.989-7.749-.206l-6.534-6.891c-1.747-1.842-1.967-4.564-.707-6.627 8.982 2.692 18.982 1.176 26.861-4.646 1.869 2.197 1.701 5.501-.411 7.503z" fill="#e86300"/></g><g><path d="m141.035 230.448-6.531-6.887c-2.085-2.199-1.993-5.671.206-7.756l11.457-10.865c2.199-2.085 5.671-1.993 7.756.206l6.531 6.887c2.085 2.199 1.993 5.671-.206 7.756l-11.457 10.865c-2.199 2.084-5.671 1.992-7.756-.206z" fill="#f97c15"/><path d="m160.249 219.788-11.46 10.867c-2.195 2.081-5.668 1.989-7.749-.206l-6.534-6.891c-1.747-1.842-1.967-4.564-.708-6.627 8.982 2.692 18.982 1.176 26.861-4.646 1.87 2.197 1.702 5.5-.41 7.503z" fill="#e86300"/></g><g><path d="m207.013 158.435-6.531-6.887c-2.085-2.199-1.993-5.671.206-7.756l11.457-10.865c2.199-2.085 5.671-1.993 7.756.206l6.531 6.888c2.085 2.199 1.993 5.671-.206 7.756l-11.457 10.865c-2.199 2.084-5.671 1.991-7.756-.207z" fill="#f97c15"/><path d="m226.227 147.775-11.46 10.867c-2.195 2.081-5.668 1.989-7.749-.206l-6.534-6.891c-1.747-1.842-1.967-4.564-.708-6.627 8.982 2.692 18.982 1.176 26.861-4.646 1.87 2.197 1.702 5.5-.41 7.503z" fill="#e86300"/></g><g><path d="m110.278 235.965-5.193 7.945c-1.658 2.536-5.058 3.248-7.594 1.59l-13.216-8.639c-2.536-1.658-3.248-5.058-1.59-7.594l5.193-7.945c1.658-2.536 5.058-3.248 7.594-1.59l13.216 8.639c2.536 1.658 3.248 5.058 1.59 7.594z" fill="#f97c15"/><path d="m95.47 219.731 13.219 8.641c2.532 1.655 3.244 5.055 1.589 7.587l-5.196 7.949c-1.389 2.125-3.987 2.968-6.284 2.218.545-9.361-3.239-18.74-10.722-25.063 1.705-2.325 4.958-2.925 7.394-1.332z" fill="#e86300"/></g><g><circle cx="278.075" cy="145.161" fill="#a1412b" r="5.041"/></g><g><circle cx="212.77" cy="210.358" fill="#a1412b" r="5.041"/></g><g><circle cx="158.625" cy="253.715" fill="#a1412b" r="5.041"/></g><g><circle cx="183.959" cy="274.166" fill="#a1412b" r="5.041"/></g><g><circle cx="439.641" cy="254.308" fill="#a1412b" r="5.041"/></g><g><circle cx="147.676" cy="186.179" fill="#a1412b" r="5.041"/></g><g><circle cx="111.79" cy="258.756" fill="#a1412b" r="5.041"/></g><g><circle cx="368.948" cy="271.135" fill="#a1412b" r="5.041"/></g></g></svg>